<svg id="visual" viewBox="0 0 2560 1440" width="2560" height="1440" xmlns="http://www.w3.org/2000/svg" xmlns:xlink="http://www.w3.org/1999/xlink" version="1.1"><rect x="0" y="0" width="2560" height="1440" fill="#ffffff"></rect><path d="M0 19L116 19L116 67L233 67L233 133L349 133L349 69L465 69L465 32L582 32L582 167L698 167L698 24L815 24L815 178L931 178L931 49L1047 49L1047 186L1164 186L1164 13L1280 13L1280 145L1396 145L1396 63L1513 63L1513 180L1629 180L1629 149L1745 149L1745 88L1862 88L1862 189L1978 189L1978 135L2095 135L2095 42L2211 42L2211 161L2327 161L2327 168L2444 168L2444 135L2560 135L2560 186L2560 1441L2560 1441L2444 1441L2444 1441L2327 1441L2327 1441L2211 1441L2211 1441L2095 1441L2095 1441L1978 1441L1978 1441L1862 1441L1862 1441L1745 1441L1745 1441L1629 1441L1629 1441L1513 1441L1513 1441L1396 1441L1396 1441L1280 1441L1280 1441L1164 1441L1164 1441L1047 1441L1047 1441L931 1441L931 1441L815 1441L815 1441L698 1441L698 1441L582 1441L582 1441L465 1441L465 1441L349 1441L349 1441L233 1441L233 1441L116 1441L116 1441L0 1441Z" fill="#7088c7"></path><path d="M0 173L116 173L116 154L233 154L233 168L349 168L349 290L465 290L465 182L582 182L582 142L698 142L698 161L815 161L815 253L931 253L931 127L1047 127L1047 254L1164 254L1164 307L1280 307L1280 212L1396 212L1396 179L1513 179L1513 271L1629 271L1629 220L1745 220L1745 135L1862 135L1862 312L1978 312L1978 308L2095 308L2095 213L2211 213L2211 138L2327 138L2327 267L2444 267L2444 231L2560 231L2560 306L2560 1441L2560 1441L2444 1441L2444 1441L2327 1441L2327 1441L2211 1441L2211 1441L2095 1441L2095 1441L1978 1441L1978 1441L1862 1441L1862 1441L1745 1441L1745 1441L1629 1441L1629 1441L1513 1441L1513 1441L1396 1441L1396 1441L1280 1441L1280 1441L1164 1441L1164 1441L1047 1441L1047 1441L931 1441L931 1441L815 1441L815 1441L698 1441L698 1441L582 1441L582 1441L465 1441L465 1441L349 1441L349 1441L233 1441L233 1441L116 1441L116 1441L0 1441Z" fill="#7e92cc"></path><path d="M0 340L116 340L116 250L233 250L233 330L349 330L349 403L465 403L465 260L582 260L582 277L698 277L698 404L815 404L815 415L931 415L931 406L1047 406L1047 310L1164 310L1164 367L1280 367L1280 309L1396 309L1396 374L1513 374L1513 293L1629 293L1629 371L1745 371L1745 425L1862 425L1862 287L1978 287L1978 375L2095 375L2095 283L2211 283L2211 256L2327 256L2327 346L2444 346L2444 400L2560 400L2560 397L2560 1441L2560 1441L2444 1441L2444 1441L2327 1441L2327 1441L2211 1441L2211 1441L2095 1441L2095 1441L1978 1441L1978 1441L1862 1441L1862 1441L1745 1441L1745 1441L1629 1441L1629 1441L1513 1441L1513 1441L1396 1441L1396 1441L1280 1441L1280 1441L1164 1441L1164 1441L1047 1441L1047 1441L931 1441L931 1441L815 1441L815 1441L698 1441L698 1441L582 1441L582 1441L465 1441L465 1441L349 1441L349 1441L233 1441L233 1441L116 1441L116 1441L0 1441Z" fill="#8b9dd1"></path><path d="M0 386L116 386L116 370L233 370L233 419L349 419L349 441L465 441L465 419L582 419L582 428L698 428L698 464L815 464L815 490L931 490L931 541L1047 541L1047 440L1164 440L1164 455L1280 455L1280 392L1396 392L1396 521L1513 521L1513 490L1629 490L1629 430L1745 430L1745 533L1862 533L1862 403L1978 403L1978 539L2095 539L2095 347L2211 347L2211 353L2327 353L2327 386L2444 386L2444 375L2560 375L2560 508L2560 1441L2560 1441L2444 1441L2444 1441L2327 1441L2327 1441L2211 1441L2211 1441L2095 1441L2095 1441L1978 1441L1978 1441L1862 1441L1862 1441L1745 1441L1745 1441L1629 1441L1629 1441L1513 1441L1513 1441L1396 1441L1396 1441L1280 1441L1280 1441L1164 1441L1164 1441L1047 1441L1047 1441L931 1441L931 1441L815 1441L815 1441L698 1441L698 1441L582 1441L582 1441L465 1441L465 1441L349 1441L349 1441L233 1441L233 1441L116 1441L116 1441L0 1441Z" fill="#99a7d6"></path><path d="M0 615L116 615L116 474L233 474L233 641L349 641L349 486L465 486L465 617L582 617L582 485L698 485L698 575L815 575L815 631L931 631L931 504L1047 504L1047 581L1164 581L1164 511L1280 511L1280 623L1396 623L1396 526L1513 526L1513 639L1629 639L1629 648L1745 648L1745 643L1862 643L1862 471L1978 471L1978 462L2095 462L2095 593L2211 593L2211 588L2327 588L2327 484L2444 484L2444 483L2560 483L2560 563L2560 1441L2560 1441L2444 1441L2444 1441L2327 1441L2327 1441L2211 1441L2211 1441L2095 1441L2095 1441L1978 1441L1978 1441L1862 1441L1862 1441L1745 1441L1745 1441L1629 1441L1629 1441L1513 1441L1513 1441L1396 1441L1396 1441L1280 1441L1280 1441L1164 1441L1164 1441L1047 1441L1047 1441L931 1441L931 1441L815 1441L815 1441L698 1441L698 1441L582 1441L582 1441L465 1441L465 1441L349 1441L349 1441L233 1441L233 1441L116 1441L116 1441L0 1441Z" fill="#a6b2db"></path><path d="M0 601L116 601L116 604L233 604L233 745L349 745L349 728L465 728L465 703L582 703L582 695L698 695L698 590L815 590L815 601L931 601L931 743L1047 743L1047 697L1164 697L1164 668L1280 668L1280 718L1396 718L1396 640L1513 640L1513 577L1629 577L1629 598L1745 598L1745 752L1862 752L1862 611L1978 611L1978 727L2095 727L2095 740L2211 740L2211 682L2327 682L2327 683L2444 683L2444 579L2560 579L2560 626L2560 1441L2560 1441L2444 1441L2444 1441L2327 1441L2327 1441L2211 1441L2211 1441L2095 1441L2095 1441L1978 1441L1978 1441L1862 1441L1862 1441L1745 1441L1745 1441L1629 1441L1629 1441L1513 1441L1513 1441L1396 1441L1396 1441L1280 1441L1280 1441L1164 1441L1164 1441L1047 1441L1047 1441L931 1441L931 1441L815 1441L815 1441L698 1441L698 1441L582 1441L582 1441L465 1441L465 1441L349 1441L349 1441L233 1441L233 1441L116 1441L116 1441L0 1441Z" fill="#b3bde0"></path><path d="M0 698L116 698L116 777L233 777L233 835L349 835L349 758L465 758L465 839L582 839L582 759L698 759L698 680L815 680L815 837L931 837L931 685L1047 685L1047 757L1164 757L1164 703L1280 703L1280 699L1396 699L1396 812L1513 812L1513 774L1629 774L1629 700L1745 700L1745 753L1862 753L1862 872L1978 872L1978 686L2095 686L2095 698L2211 698L2211 692L2327 692L2327 730L2444 730L2444 834L2560 834L2560 871L2560 1441L2560 1441L2444 1441L2444 1441L2327 1441L2327 1441L2211 1441L2211 1441L2095 1441L2095 1441L1978 1441L1978 1441L1862 1441L1862 1441L1745 1441L1745 1441L1629 1441L1629 1441L1513 1441L1513 1441L1396 1441L1396 1441L1280 1441L1280 1441L1164 1441L1164 1441L1047 1441L1047 1441L931 1441L931 1441L815 1441L815 1441L698 1441L698 1441L582 1441L582 1441L465 1441L465 1441L349 1441L349 1441L233 1441L233 1441L116 1441L116 1441L0 1441Z" fill="#bfc7e6"></path><path d="M0 804L116 804L116 967L233 967L233 887L349 887L349 903L465 903L465 819L582 819L582 926L698 926L698 849L815 849L815 923L931 923L931 978L1047 978L1047 976L1164 976L1164 897L1280 897L1280 886L1396 886L1396 914L1513 914L1513 898L1629 898L1629 801L1745 801L1745 865L1862 865L1862 887L1978 887L1978 974L2095 974L2095 942L2211 942L2211 979L2327 979L2327 801L2444 801L2444 837L2560 837L2560 915L2560 1441L2560 1441L2444 1441L2444 1441L2327 1441L2327 1441L2211 1441L2211 1441L2095 1441L2095 1441L1978 1441L1978 1441L1862 1441L1862 1441L1745 1441L1745 1441L1629 1441L1629 1441L1513 1441L1513 1441L1396 1441L1396 1441L1280 1441L1280 1441L1164 1441L1164 1441L1047 1441L1047 1441L931 1441L931 1441L815 1441L815 1441L698 1441L698 1441L582 1441L582 1441L465 1441L465 1441L349 1441L349 1441L233 1441L233 1441L116 1441L116 1441L0 1441Z" fill="#ccd2eb"></path><path d="M0 987L116 987L116 1067L233 1067L233 1052L349 1052L349 1033L465 1033L465 1042L582 1042L582 923L698 923L698 943L815 943L815 1026L931 1026L931 949L1047 949L1047 970L1164 970L1164 1068L1280 1068L1280 1090L1396 1090L1396 1033L1513 1033L1513 936L1629 936L1629 916L1745 916L1745 919L1862 919L1862 960L1978 960L1978 925L2095 925L2095 979L2211 979L2211 921L2327 921L2327 910L2444 910L2444 991L2560 991L2560 910L2560 1441L2560 1441L2444 1441L2444 1441L2327 1441L2327 1441L2211 1441L2211 1441L2095 1441L2095 1441L1978 1441L1978 1441L1862 1441L1862 1441L1745 1441L1745 1441L1629 1441L1629 1441L1513 1441L1513 1441L1396 1441L1396 1441L1280 1441L1280 1441L1164 1441L1164 1441L1047 1441L1047 1441L931 1441L931 1441L815 1441L815 1441L698 1441L698 1441L582 1441L582 1441L465 1441L465 1441L349 1441L349 1441L233 1441L233 1441L116 1441L116 1441L0 1441Z" fill="#d9ddf0"></path><path d="M0 1011L116 1011L116 1161L233 1161L233 1080L349 1080L349 1078L465 1078L465 1123L582 1123L582 1188L698 1188L698 1154L815 1154L815 1202L931 1202L931 1116L1047 1116L1047 1049L1164 1049L1164 1094L1280 1094L1280 1078L1396 1078L1396 1085L1513 1085L1513 1021L1629 1021L1629 1151L1745 1151L1745 1156L1862 1156L1862 1137L1978 1137L1978 1033L2095 1033L2095 1159L2211 1159L2211 1192L2327 1192L2327 1049L2444 1049L2444 1146L2560 1146L2560 1039L2560 1441L2560 1441L2444 1441L2444 1441L2327 1441L2327 1441L2211 1441L2211 1441L2095 1441L2095 1441L1978 1441L1978 1441L1862 1441L1862 1441L1745 1441L1745 1441L1629 1441L1629 1441L1513 1441L1513 1441L1396 1441L1396 1441L1280 1441L1280 1441L1164 1441L1164 1441L1047 1441L1047 1441L931 1441L931 1441L815 1441L815 1441L698 1441L698 1441L582 1441L582 1441L465 1441L465 1441L349 1441L349 1441L233 1441L233 1441L116 1441L116 1441L0 1441Z" fill="#e6e8f5"></path><path d="M0 1135L116 1135L116 1220L233 1220L233 1263L349 1263L349 1127L465 1127L465 1145L582 1145L582 1247L698 1247L698 1240L815 1240L815 1137L931 1137L931 1256L1047 1256L1047 1295L1164 1295L1164 1172L1280 1172L1280 1227L1396 1227L1396 1127L1513 1127L1513 1192L1629 1192L1629 1185L1745 1185L1745 1164L1862 1164L1862 1163L1978 1163L1978 1121L2095 1121L2095 1157L2211 1157L2211 1198L2327 1198L2327 1212L2444 1212L2444 1120L2560 1120L2560 1314L2560 1441L2560 1441L2444 1441L2444 1441L2327 1441L2327 1441L2211 1441L2211 1441L2095 1441L2095 1441L1978 1441L1978 1441L1862 1441L1862 1441L1745 1441L1745 1441L1629 1441L1629 1441L1513 1441L1513 1441L1396 1441L1396 1441L1280 1441L1280 1441L1164 1441L1164 1441L1047 1441L1047 1441L931 1441L931 1441L815 1441L815 1441L698 1441L698 1441L582 1441L582 1441L465 1441L465 1441L349 1441L349 1441L233 1441L233 1441L116 1441L116 1441L0 1441Z" fill="#f2f4fa"></path><path d="M0 1387L116 1387L116 1328L233 1328L233 1332L349 1332L349 1231L465 1231L465 1281L582 1281L582 1360L698 1360L698 1395L815 1395L815 1317L931 1317L931 1384L1047 1384L1047 1317L1164 1317L1164 1390L1280 1390L1280 1312L1396 1312L1396 1344L1513 1344L1513 1270L1629 1270L1629 1368L1745 1368L1745 1243L1862 1243L1862 1333L1978 1333L1978 1391L2095 1391L2095 1326L2211 1326L2211 1337L2327 1337L2327 1253L2444 1253L2444 1325L2560 1325L2560 1235L2560 1441L2560 1441L2444 1441L2444 1441L2327 1441L2327 1441L2211 1441L2211 1441L2095 1441L2095 1441L1978 1441L1978 1441L1862 1441L1862 1441L1745 1441L1745 1441L1629 1441L1629 1441L1513 1441L1513 1441L1396 1441L1396 1441L1280 1441L1280 1441L1164 1441L1164 1441L1047 1441L1047 1441L931 1441L931 1441L815 1441L815 1441L698 1441L698 1441L582 1441L582 1441L465 1441L465 1441L349 1441L349 1441L233 1441L233 1441L116 1441L116 1441L0 1441Z" fill="#ffffff"></path></svg>